<?xml version="1.0" encoding="utf-8"?>
<!-- Generator: Adobe Illustrator 28.2.0, SVG Export Plug-In . SVG Version: 6.00 Build 0)  -->
<svg version="1.1" id="Layer_1" xmlns="http://www.w3.org/2000/svg" xmlns:xlink="http://www.w3.org/1999/xlink" x="0px" y="0px"
	 viewBox="0 0 1920 1080" style="enable-background:new 0 0 1920 1080;" xml:space="preserve">
<style type="text/css">
	.st0{fill:#FEFEFE;}
	.st1{fill:#5CE0E5;}
	.st2{fill:#5CDFE5;}
	.st3{fill:#8A57FD;}
	.st4{fill:#7497F2;}
	.st5{fill:#885DFC;}
	.st6{fill:#6DACEE;}
	.st7{fill:#65C5EA;}
	.st8{fill:#64C7EA;}
	.st9{fill:#71A1F0;}
	.st10{fill:#60D3E7;}
	.st11{fill:#6FA6EF;}
	.st12{fill:#62CDE9;}
	.st13{fill:#7499F2;}
	.st14{fill:#65C4EA;}
	.st15{fill:#69B8EC;}
	.st16{fill:#66C0EA;}
	.st17{fill:#67BEEB;}
	.st18{fill:#66C1EA;}
	.st19{fill:#66C2EA;}
	.st20{fill:#67BFEB;}
	.st21{fill:#69BAEC;}
	.st22{fill:#70A4EF;}
	.st23{fill:#66C2EB;}
	.st24{fill:#6DACEF;}
	.st25{fill:#FFFFFF;}
	.st26{fill:#8A56FD;}
</style>
<g>
	<g>
		<path class="st0" d="M401.63,261.73c0,169.8,0,339.61,0,509.41c-2.89-0.92-1.3-2.75-1.31-4.08c-0.12-25.3-0.09-50.6-0.09-75.9
			c0-141.62-0.01-283.23,0.09-424.85C400.32,264.83,398.71,262.86,401.63,261.73z"/>
		<path class="st1" d="M625.61,536.81c-5.82,0-10.2-0.18-14.55,0.05c-3.86,0.2-6-0.91-7.45-3.44c-1.43-2.49-3.33-4.84-5.01-7.26
			c-0.99-1.43-2.66-1.74-4.67-1.59c-2.57,0.19-2.66,1.59-2.76,2.96c-0.07,1.01-0.23,2.05-0.02,3.05c0.97,4.74-1.24,6.67-8.26,6.34
			c-9.4-0.44-9.43-0.1-9.43-6.9c0-10.84,0.17-21.69-0.09-32.53c-0.09-3.57,1.53-4.78,6.37-4.62c7.88,0.25,15.8-0.06,23.68,0.19
			c8.71,0.27,15.99,2.8,19.35,9.03c3.5,6.49,2.54,12.8-4.59,17.8c-2.9,2.04-2.63,3.48-0.91,5.64
			C619.93,528.87,622.31,532.33,625.61,536.81z"/>
		<path class="st1" d="M635.1,515.01c0-5.94,0.12-11.88-0.05-17.82c-0.08-2.89,0.92-4.39,5.43-4.31
			c10.47,0.17,20.94,0.17,31.41,0.02c5.75-0.09,4.74,2.74,4.77,5.19c0.03,2.5,0.83,5.33-4.87,5.11c-4.87-0.19-9.77,0.02-14.66-0.02
			c-2.79-0.02-4.31,0.66-4.38,2.91c-0.08,2.41,1.31,3.4,4.54,3.33c3.02-0.07,6.1,0.27,9.06-0.05c6.92-0.73,8.25,1.75,7.93,6.13
			c-0.22,2.99-1.36,4.37-5.67,4.17c-3.71-0.18-7.44,0.03-11.16-0.03c-3.13-0.05-4.69,0.78-4.74,3.24c-0.06,2.57,1.22,3.74,4.86,3.67
			c4.88-0.1,9.79,0.19,14.65-0.06c5.78-0.29,5.6,2.33,5.61,5.22c0,2.89,0.21,5.34-5.6,5.2c-10.46-0.27-20.94-0.22-31.41-0.01
			c-4.84,0.1-5.91-1.43-5.79-4.55C635.26,526.56,635.1,520.78,635.1,515.01z"/>
		<path class="st1" d="M751.02,514.54c0-5.77,0.11-11.54-0.05-17.31c-0.08-2.85,0.82-4.42,5.38-4.35
			c10.47,0.17,20.94,0.18,31.41,0.01c5.71-0.09,4.83,2.68,4.82,5.16c-0.01,2.47,0.92,5.35-4.82,5.14
			c-4.87-0.18-9.77,0.02-14.66-0.02c-2.75-0.02-4.36,0.6-4.43,2.87c-0.07,2.38,1.22,3.44,4.49,3.36c3.02-0.07,6.1,0.26,9.06-0.05
			c6.83-0.71,8.35,1.65,7.98,6.09c-0.25,2.95-1.27,4.41-5.63,4.2c-3.71-0.18-7.44,0.03-11.16-0.03c-3.09-0.05-4.74,0.72-4.79,3.2
			c-0.05,2.54,1.13,3.78,4.81,3.7c5.11-0.1,10.24,0.12,15.35-0.03c5.62-0.17,4.93,2.66,4.89,5.16c-0.04,2.44,0.96,5.28-4.79,5.2
			c-10.93-0.16-21.87-0.13-32.81,0c-4.11,0.05-5.18-1.28-5.11-3.98C751.12,526.76,751.02,520.65,751.02,514.54z"/>
		<path class="st1" d="M713.94,516.79c3.1-6.34,6.19-12.68,9.3-19.02c1.98-4.04,14.14-6.94,19.03-4.6c1.73,0.83,0.79,1.79,0.36,2.64
			c-6.57,12.86-13.22,25.69-19.77,38.56c-0.98,1.93-2.77,2.35-5.35,2.47c-12.79,0.64-12.78,0.68-17.35-8.18
			c-5.4-10.46-10.71-20.95-16.28-31.37c-1.74-3.25-1.19-4.75,4.05-4.4c2.53,0.17,5.12,0.15,7.66,0c3.59-0.21,5.42,0.87,6.57,3.38
			c3.15,6.87,6.65,13.67,10.01,20.49C712.76,516.78,713.35,516.79,713.94,516.79z"/>
		<path class="st1" d="M905.51,492.93c7.21,0,14.43,0.16,21.63-0.05c5.47-0.16,5.46,2.35,5.04,4.97c-0.42,2.61,2.39,6.38-4.89,6.71
			c-13.31,0.61-13.3,0.77-13.3,10.7c0,5.6-0.19,11.2,0.07,16.8c0.16,3.33-0.94,4.93-6.12,4.82c-13.63-0.3-11.48,0.81-11.64-8.37
			c-0.11-6.45-0.24-12.9,0.06-19.34c0.17-3.55-1.57-5.06-6.41-4.66c-0.92,0.08-1.86,0.01-2.79,0.01c-8.58-0.03-11.79-3.59-9.01-9.74
			c0.93-2.05,3.03-1.82,5.03-1.83C890.62,492.91,898.06,492.93,905.51,492.93z"/>
		<path class="st1" d="M820.86,508.88c0,4.06,0.13,8.13-0.04,12.18c-0.13,2.88,1.6,3.94,5.4,3.85c4.63-0.1,9.28,0.1,13.92-0.03
			c7.65-0.2,5.18,3.91,5.5,6.76c0.31,2.78,0.56,5.39-5.36,5.24c-10.43-0.27-20.87-0.16-31.31-0.03c-3.85,0.05-5.35-0.93-5.32-3.8
			c0.13-12.01,0.15-24.03-0.01-36.04c-0.04-3.06,1.38-4.39,5.63-4.1c2.07,0.14,4.18,0.12,6.26,0.01c3.82-0.21,5.5,0.9,5.36,3.78
			c-0.19,4.06-0.05,8.12-0.05,12.18C820.84,508.88,820.85,508.88,820.86,508.88z"/>
		<path class="st2" d="M870.37,520.46c0.01,4.05-0.12,8.11,0.05,12.16c0.12,2.86-0.93,4.22-5.41,4.29
			c-11.28,0.16-11.28,0.33-11.28-8.12c0-7.09,0.23-14.19-0.07-21.27c-0.19-4.62,3.94-4.2,7.86-4.05c3.76,0.15,8.99-1.34,8.86,3.82
			C870.27,511.67,870.36,516.07,870.37,520.46z"/>
		<path class="st2" d="M871.79,492.41c-0.09,3.76-4.63,6.81-10.07,6.76c-5.48-0.05-9.75-3.11-9.71-6.98c0.04-3.82,4.48-6.83,10-6.77
			C867.45,485.47,871.88,488.64,871.79,492.41z"/>
		<path class="st3" d="M761.76,572.5"/>
		<path class="st4" d="M873.54,568.47"/>
		<path class="st5" d="M900.52,572.51"/>
		<path class="st6" d="M721.62,572.86c0.29-0.45,0.68-0.84,1.15-1.2"/>
		<path class="st4" d="M824.39,571.61"/>
		<path class="st7" d="M891.84,572.9"/>
		<path class="st8" d="M844.77,569.78c1.23-0.64,2.17,1.21,3.12,1.81"/>
		<path class="st9" d="M790.08,572.57"/>
		<path class="st10" d="M670.01,567.65"/>
		<path class="st11" d="M640.34,572.52c1.05-0.67,2.09-0.66,3.1,0.05"/>
		<path class="st6" d="M779,571.93"/>
		<path class="st12" d="M797.39,572.55c0.43,0.01,0.86,0.02,1.29,0.02"/>
		<path class="st13" d="M655.9,572.59"/>
		<path class="st14" d="M715.03,572.61"/>
		<path class="st15" d="M704.25,571.71"/>
		<path class="st16" d="M761.76,572.5"/>
		<path class="st17" d="M630.61,571.96c-2.36,0.7-4.43,0.74-6.79,0.02C626.16,571.2,628.24,571.19,630.61,571.96z"/>
		<path class="st18" d="M643.44,572.57c-1.03-0.02-2.06-0.04-3.1-0.05c-0.98-0.37-0.97-0.74,0-1.11c1.02-0.56,2.06-0.56,3.11-0.05
			c1.22,0.1,2.44,0.2,3.66,0.31c0,0.2,0,0.4,0,0.61C645.89,572.37,644.66,572.47,643.44,572.57z"/>
		<path class="st19" d="M655.9,572.58c1.74-1.54,3.98-1.21,7.57-0.77"/>
		<path class="st14" d="M715.03,572.61c2.23-1.83,5.06-1.06,7.74-0.95c0.01,0.24,0.04,0.48,0.08,0.72"/>
		<path class="st20" d="M891.84,572.9c2.71-2.24,5.65-1.82,8.68-0.4"/>
		<path class="st11" d="M790.08,572.57"/>
		<path class="st17" d="M857.68,571.58c1.8,0,3.6,0,5.39,0c0.03,0.17,0.05,0.34,0.08,0.5c-1.88,0-3.76,0-5.65,0
			C857.56,571.91,857.62,571.75,857.68,571.58z"/>
		<path class="st21" d="M716.1,586.3c2.14-0.92,4.06-0.6,6.31-0.29C720.28,587.23,718.34,586.78,716.1,586.3z"/>
		<path class="st11" d="M597.83,572.46"/>
		<path class="st22" d="M643.45,571.35c-1.04,0.02-2.07,0.03-3.11,0.05c0.51-0.81-0.01-2.23,1.91-2.14
			C642.71,569.29,643.05,570.62,643.45,571.35z"/>
		<path class="st23" d="M833.08,572.22c-1.19,0-2.37,0-3.86,0C830.65,570.94,831.87,571.72,833.08,572.22z"/>
		<path class="st24" d="M607.03,572.66c0.35,0.1,0.73,0.21,1.11,0.32"/>
		<path class="st25" d="M590.47,508.62c-0.62-3.41-0.03-5.94,6.27-5.48c5.21,0.38,10.15,0.86,10.08,5.63
			c-0.07,4.77-5.16,5.17-10.26,5.57C590.04,514.85,590.01,511.96,590.47,508.62z"/>
		<path class="st26" d="M722.85,572.38"/>
	</g>
</g>
</svg>
